<svg xmlns="http://www.w3.org/2000/svg" viewBox="0 0 288 88.64"><defs><style>.cls-1{fill:#fff;}</style></defs><g id="Layer_2" data-name="Layer 2"><g id="Layer_1-2" data-name="Layer 1"><path class="cls-1" d="M22.37,31.82c-2.94,0-3.78.42-3.78,2.73v18.8c0,.95.31,6.83,1.26,7.88,1.15,1.26,4.51,2,7.88,2,8,0,13.86-5.46,13.86-14.59,0-9.46-7.77-16.81-19.22-16.81m3.46-29.3c-6.93,0-7.24.94-7.24,3v22.8c0,1.68,1.36,1.47,3.88,1.47a84.59,84.59,0,0,1,10.82.63c3.05-2.31,6.51-4.31,6.51-12.61,0-5.25-4.41-15.33-14-15.33M27.2,65.11c-4.41,0-8.82-1-13.44-1-4.41,0-6.72.42-10.08.42-1.06,0-1.79-.1-1.79-1.15s.63-1.26,2.94-1.26c4.73,0,4.94-.21,4.94-1.79V12c0-8.29-1.69-9.24-4.62-9.24C.42,2.73,0,2.62,0,1.37,0,.63.31.52,2.1.52c3.26,0,6.51.11,10.19.11C14.49.63,19.53,0,29,0,42.64,0,48.52,7,48.52,14.49S44,25.62,40.64,27.93c-2,1.37-4.3,2.53-4.3,2.84s2,.74,4.09,1.79c4.94,2.52,11.14,6.09,11.14,15.23,0,11.76-9.77,17.32-24.37,17.32"/><path class="cls-1" d="M71,28.07c-6.94,0-9.14,10.42-9.14,11.7,0,.45,0,.54,1.1.54,4.75,0,9.68-1.19,16.53-2.28,1-.18,1.1-.37,1.1-.91,0-2.29-5.39-9-9.59-9M85.05,39a141.87,141.87,0,0,1-21.93,3.2c-1.46.09-1.73.55-1.73,2.65,0,12.61,9.77,16,16.71,16,6,0,9.32-2.2,9.87-2.2s.73.55.73.73c0,.46-7.76,6.22-15.16,6.22S54.9,62,54.9,46.71c0-12.88,8.68-20.56,17-20.56,4.75,0,10.6,3,13.89,6.86,1.55,1.82,3,4,3,4.74,0,.37-1.28.74-3.74,1.28"/><path class="cls-1" d="M118.48,36.57c-1.28,0-2.38-3.75-6.94-3.75-5.3,0-7.31,2.19-7.31,6V57.67c0,4.47.27,4.47,7,4.47,2.38,0,2.47.28,2.47,1.1,0,1-.09.91-2.47.91-1.28,0-7.4-.45-10.32-.45-3.11,0-6.21.45-7.49.45-2.1,0-2.29,0-2.29-.91s.1-1.1,2.29-1.1c3.74,0,4-.09,4-1.37v-25c0-6.22.18-6.4-4.93-6.4-1.65,0-1.65.09-1.65-.91s-.09-1.37,1.46-1.37c3.11,0,4.84.18,6.67.18,1.46,0,3.2-.46,4.66-.46.37,0,.73.28.73,1,0,.46-.18,2.47-.18,2.74,0,.82.09,1.46.46,1.46,1.37,0,5.66-4.75,10-4.75,1.65,0,5.85,2,5.85,4.38,0,.92-1.46,4.94-2,4.94"/><path class="cls-1" d="M161.69,64.52c-1.1,0-2.29-.09-3.11-.09-1.09,0-3.84.09-5.11.09-1.65,0-2.47-2.29-6.31-6.67s-7.67-10.14-8.22-10.14a17.18,17.18,0,0,0-3.2,1.92c-1.46.91-2.74,1.55-2.74,2.38v5.75c0,4.29-.18,4.29,5.48,4.29,2.1,0,2.47.46,2.47,1.19,0,.91-.46.91-2.47.91-1.37,0-5.57-.18-8.49-.18-3.11,0-6.49.18-7.77.18-2.1,0-2.65-.09-2.65-.91s.46-1.19,2.65-1.19c3.11,0,3.93,0,3.93-1.37,0-2.65.28-29.68.28-49,0-6.48-.74-7.31-3.2-7.31-3.75,0-4.11-.27-4.11-.91,0-.91.18-1.28,1.19-1.28,6.57,0,12-2,12.78-2,.46,0,.64.27.64.82,0,1.19-.18,5-.18,8,0,13.89-.55,24.12-.55,39,0,.37.09.65.37.65,2.28,0,11.78-8.41,14.71-11.15,3.56-3.38,4.38-4.93,4.38-6.85,0-1.46-.27-1.64-4.29-1.64-1.37,0-1.83-.19-1.83-1s.46-.91,1.64-.91c.92,0,2.65.27,3.75.27s6.48-.27,7.58-.27c.73,0,1.1.09,1.1.36,0,.83-3.11,4.75-5.94,7.49-4.57,4.48-10.23,8.5-10.23,9.14,0,.82,1.64,2.56,8,10.23,3.1,3.74,6,8.22,9.13,8.22,2.19,0,2.92.46,2.92,1.19s-.63.82-2.64.82"/><path class="cls-1" d="M177.49,28.07c-6.94,0-9.13,10.42-9.13,11.7,0,.45,0,.54,1.09.54,4.75,0,9.68-1.19,16.54-2.28,1-.18,1.09-.37,1.09-.91,0-2.29-5.39-9-9.59-9m14.07,11a141.89,141.89,0,0,1-21.92,3.2c-1.47.09-1.74.55-1.74,2.65,0,12.61,9.77,16,16.72,16,6,0,9.31-2.2,9.86-2.2s.73.55.73.73c0,.46-7.76,6.22-15.16,6.22S161.41,62,161.41,46.71c0-12.88,8.68-20.56,17-20.56,4.75,0,10.6,3,13.89,6.86,1.55,1.82,3,4,3,4.74,0,.37-1.27.74-3.74,1.28"/><path class="cls-1" d="M211.67,64.15c-1.37,0-3.38-.18-5-.18-3.11,0-8,.18-9.23.18-2.1,0-2.28-.18-2.28-.91s.09-1.19,2.28-1.19c3.75,0,5.3.09,5.3-1.55V10.17c0-5.76-.55-5.76-4.66-5.76-1.64,0-2.56-.18-2.56-1.19s.73-1,2.29-1.09a48.77,48.77,0,0,0,11.14-2c.46,0,.91.46.91,1.46s-.45,4.39-.45,7.13c0,34.8-.46,42-.46,44.67,0,7.58.64,8.58,2.29,8.58,4.56,0,4.38.55,4.38,1.28,0,.91-.64.91-3.93.91"/><path class="cls-1" d="M230.18,28.07c-6.94,0-9.14,10.42-9.14,11.7,0,.45,0,.54,1.1.54,4.75,0,9.68-1.19,16.53-2.28,1-.18,1.1-.37,1.1-.91,0-2.29-5.39-9-9.59-9m14.07,11a141.87,141.87,0,0,1-21.93,3.2c-1.46.09-1.73.55-1.73,2.65,0,12.61,9.77,16,16.71,16,6,0,9.32-2.2,9.87-2.2s.73.55.73.73c0,.46-7.76,6.22-15.16,6.22S214.1,62,214.1,46.71c0-12.88,8.68-20.56,17-20.56,4.75,0,10.6,3,13.89,6.86,1.55,1.82,3,4,3,4.74,0,.37-1.28.74-3.74,1.28"/><path class="cls-1" d="M285.63,29.26c-2,0-6,11-13.25,28.5-5.76,14-9.87,21.38-12.79,27.4-1,2-2.1,2.11-4.11,2.38-2.74.36-3.38,1.1-5.39,1.1-1.55,0-2.46-.46-2.46-.92s4.29-1.09,7.39-5c3.29-4.11,11.15-14.89,11.15-17.63,0-1-7.31-17.91-12.33-29.78-2.29-5.48-2.93-5.94-4.57-5.94-1.83,0-1.92-.09-1.92-.91s.28-1.28,1.92-1.28c2.56,0,3.2.18,5.39.18,2.56,0,5.75-.27,8.68-.27,1.91,0,2.28.36,2.28,1.37,0,.82-.37.91-2.28.91-2.2,0-2.74.55-2.74,2.65,0,2.65,2.37,5.85,7.85,19.91.73,1.92,1.83,3.48,2.19,3.48.64,0,1.19-1.28,2.65-5.58,2.19-6.57,5.48-16.07,5.48-17.35,0-2.74,0-3.29-3.1-3.29-2.83,0-3.2,0-3.2-.91,0-1.19.27-1.19,1.92-1.19,2.47,0,4.11.18,6.58.18,1.37,0,3.83-.37,5.11-.37,1.46,0,1.92.1,1.92,1.1,0,.82-1.28,1.28-2.37,1.28"/><path class="cls-1" d="M12.44,87.3c-3,0-4.51-1.7-4.51-4.44v-8h2.12V83c0,1.53.64,2.53,2.39,2.53s2.37-1,2.37-2.52V74.89h2.12v8c0,2.76-1.51,4.46-4.49,4.46"/><polygon class="cls-1" points="27.22 87.1 22.07 78.9 22.03 78.9 22.03 87.1 19.91 87.1 19.91 75.08 21.96 74.87 26.93 82.91 26.99 82.91 26.99 74.89 29.11 74.89 29.11 87.1 27.22 87.1"/><rect class="cls-1" x="32.13" y="74.89" width="2.12" height="12.21"/><path class="cls-1" d="M42.88,87.1H40.55L36.34,74.89h2.25l2.33,6.81s.23.71.82,2.8h.11c.61-2.09.84-2.78.84-2.78L45,74.89h2.09Z"/><polygon class="cls-1" points="56.59 87.1 49.17 87.1 49.17 74.87 56.45 74.87 56.45 76.67 51.3 76.67 51.3 80.04 55.88 80.04 55.88 81.84 51.3 81.84 51.3 85.3 56.75 85.3 56.59 87.1"/><path class="cls-1" d="M63.43,76.71H61.69v3.72h1.78a1.7,1.7,0,0,0,1.87-1.9c0-1.14-.46-1.82-1.91-1.82M66,87.1l-1.7-3.44c-.36-.73-.8-1.44-1.57-1.44h-1V87.1H59.56V74.89h3.93c2.69,0,4,1.5,4,3.62a3.34,3.34,0,0,1-2.3,3.31v0a2,2,0,0,1,.75.84l2.33,4.4Z"/><path class="cls-1" d="M73.79,87.3a7,7,0,0,1-4-1.36l.89-1.57a6.05,6.05,0,0,0,3.14,1.13c1.41,0,2.1-.79,2.1-1.7,0-2.28-5.4-1.55-5.4-5.65,0-2.16,1.8-3.46,4-3.46A6.87,6.87,0,0,1,78,75.78l-.77,1.53a5.91,5.91,0,0,0-2.78-.82c-1.18,0-1.78.66-1.78,1.57,0,2.77,5.4,1.52,5.4,5.67,0,2.07-1.95,3.57-4.28,3.57"/><rect class="cls-1" x="80.6" y="74.89" width="2.12" height="12.21"/><polygon class="cls-1" points="93.59 76.69 90.51 76.69 90.51 87.1 88.39 87.1 88.39 76.71 85.16 76.71 85.16 74.89 93.75 74.89 93.59 76.69"/><path class="cls-1" d="M101.11,81.88V87.1H99V81.88l-3.85-7h2.39l1.62,3.48s.23.44.88,1.8h0c.6-1.36.82-1.8.82-1.8l1.73-3.48H105Z"/><path class="cls-1" d="M117.51,76.49c-2.1,0-3.14,1.82-3.14,4.48s1,4.53,3.14,4.53,3.12-1.86,3.12-4.51-1-4.5-3.12-4.5m0,10.81c-3.69,0-5.31-2.82-5.31-6.31,0-3.68,1.64-6.3,5.31-6.3s5.31,2.62,5.31,6.3c0,3.49-1.62,6.31-5.31,6.31"/><polygon class="cls-1" points="127.67 76.67 127.67 80.04 132.16 80.04 132.16 81.84 127.67 81.84 127.67 87.1 125.55 87.1 125.55 74.87 132.68 74.87 132.68 76.67 127.67 76.67"/><path class="cls-1" d="M146.06,87.3c-3.76,0-5.4-2.55-5.4-6.3s1.8-6.31,5.48-6.31a6.14,6.14,0,0,1,4.06,1.57l-1.1,1.43a4.36,4.36,0,0,0-3-1.2c-2.16,0-3.3,1.63-3.3,4.5s1.07,4.51,3.33,4.51a4.91,4.91,0,0,0,3.23-1.41l1.09,1.39a6.58,6.58,0,0,1-4.43,1.82"/><path class="cls-1" d="M158,80s-.15-.39-1-2.92h0c-.82,2.53-1,2.92-1,2.92l-.95,2.69H159Zm2.49,7.15-1-2.94h-4.92l-1,2.94h-2l4.3-12,2.47-.2,4.34,12.23Z"/><polygon class="cls-1" points="171.63 87.1 164.4 87.1 164.4 74.89 166.53 74.89 166.53 85.3 171.78 85.3 171.63 87.1"/><rect class="cls-1" x="173.85" y="74.89" width="2.12" height="12.21"/><polygon class="cls-1" points="180.85 76.67 180.85 80.04 185.35 80.04 185.35 81.84 180.85 81.84 180.85 87.1 178.73 87.1 178.73 74.87 185.87 74.87 185.87 76.67 180.85 76.67"/><path class="cls-1" d="M192.55,76.49c-2.11,0-3.14,1.82-3.14,4.48s1,4.53,3.14,4.53,3.12-1.86,3.12-4.51-1-4.5-3.12-4.5m0,10.81c-3.69,0-5.31-2.82-5.31-6.31,0-3.68,1.63-6.3,5.31-6.3s5.31,2.62,5.31,6.3c0,3.49-1.62,6.31-5.31,6.31"/><path class="cls-1" d="M203.56,76.71h-1.74v3.72h1.78a1.7,1.7,0,0,0,1.87-1.9c0-1.14-.46-1.82-1.91-1.82m2.53,10.39-1.69-3.44c-.35-.73-.8-1.44-1.57-1.44h-1V87.1h-2.13V74.89h3.93c2.69,0,4,1.5,4,3.62a3.33,3.33,0,0,1-2.29,3.31v0a1.87,1.87,0,0,1,.74.84l2.34,4.4Z"/><polygon class="cls-1" points="217.4 87.1 212.25 78.9 212.21 78.9 212.21 87.1 210.09 87.1 210.09 75.08 212.14 74.87 217.11 82.91 217.16 82.91 217.16 74.89 219.29 74.89 219.29 87.1 217.4 87.1"/><rect class="cls-1" x="221.96" y="74.89" width="2.12" height="12.21"/><path class="cls-1" d="M232.24,80s-.14-.39-1-2.92h0c-.83,2.53-1,2.92-1,2.92l-.94,2.69h3.87Zm2.5,7.15-1-2.94H228.8l-1,2.94h-2l4.29-12,2.48-.2,4.33,12.23Z"/></g></g></svg>